<?xml version="1.0" standalone="no"?>
<!DOCTYPE svg PUBLIC "-//W3C//DTD SVG 20010904//EN"
 "http://www.w3.org/TR/2001/REC-SVG-20010904/DTD/svg10.dtd">
<svg version="1.0" xmlns="http://www.w3.org/2000/svg"
 width="2560.000000pt" height="982.000000pt" viewBox="0 0 2560.000000 982.000000"
 preserveAspectRatio="xMidYMid meet">

<g transform="translate(0.000000,982.000000) scale(0.100000,-0.100000)"
fill="#000000" stroke="none">
<path d="M12035 9663 c-2252 -42 -4529 -327 -6375 -799 -1814 -464 -3215
-1063 -4185 -1789 -225 -169 -333 -262 -520 -450 -423 -422 -667 -833 -763
-1285 -201 -942 339 -1871 1563 -2687 2494 -1663 7399 -2600 12440 -2378 3320
147 6324 779 8412 1769 977 463 1718 998 2178 1571 195 243 360 549 441 819
65 217 91 509 64 735 -45 386 -223 776 -526 1156 -176 220 -497 520 -788 738
-2154 1607 -6575 2625 -11321 2605 -269 -1 -548 -3 -620 -5z m1470 -413 c2480
-62 4705 -365 6635 -901 2527 -704 4174 -1745 4553 -2880 62 -183 81 -308 81
-514 0 -238 -29 -391 -115 -608 -406 -1020 -1819 -1950 -3999 -2632 -2647
-828 -6166 -1199 -9660 -1020 -3990 206 -7422 1110 -9165 2416 -1169 875
-1468 1887 -839 2836 1056 1592 4559 2835 9024 3203 1111 91 2380 128 3485
100z"/>
<path d="M11905 8890 c-1997 -52 -3854 -263 -5490 -625 -2565 -567 -4358
-1437 -5031 -2442 -125 -186 -221 -411 -261 -610 -24 -122 -24 -394 0 -516
172 -854 1137 -1656 2771 -2303 2624 -1039 6572 -1539 10571 -1339 3868 194
7230 1060 8864 2283 159 119 247 195 390 335 336 331 529 652 608 1009 14 64
18 126 18 273 0 147 -4 209 -18 273 -79 357 -272 677 -608 1009 -336 331 -751
614 -1334 908 -293 148 -468 227 -800 360 -1835 736 -4427 1222 -7220 1355
-680 32 -1834 46 -2460 30z m-1700 -850 c482 -38 860 -89 1793 -245 1241 -206
1855 -266 2582 -252 537 11 967 57 1435 153 94 19 184 38 202 41 83 15 161
-33 183 -111 42 -151 -90 -357 -330 -515 -116 -77 -363 -199 -485 -240 -288
-97 -547 -134 -935 -134 -549 1 -985 79 -1990 358 -367 102 -920 245 -946 245
-9 0 -14 -19 -16 -52 l-3 -53 -171 -130 c-446 -338 -729 -601 -963 -895 -122
-152 -281 -394 -268 -406 7 -8 741 29 835 42 l42 5 0 113 c0 207 57 353 190
487 156 157 349 206 512 129 97 -45 159 -122 184 -229 17 -72 17 -120 -1 -204
-42 -200 -198 -380 -397 -457 -38 -15 -74 -32 -80 -38 -18 -18 11 -50 118
-127 114 -83 129 -106 99 -161 -23 -42 -72 -74 -114 -74 -66 0 -216 94 -338
213 l-83 80 -133 -7 c-266 -13 -1004 -88 -1052 -106 -28 -11 -25 -7 -223 -332
-623 -1022 -999 -1548 -1407 -1967 -491 -504 -953 -751 -1500 -801 -561 -51
-1034 134 -1317 514 -245 328 -311 824 -169 1256 35 105 134 298 202 395 82
114 229 261 350 348 120 86 327 189 447 223 115 33 255 32 311 -1 55 -33 93
-87 99 -143 6 -72 -14 -103 -101 -153 -143 -81 -272 -174 -364 -262 -207 -198
-298 -376 -310 -603 -7 -133 10 -225 61 -330 117 -242 324 -368 626 -381 314
-13 659 112 983 356 258 194 668 615 1003 1031 193 240 534 704 534 727 0 13
-12 15 -82 8 -243 -20 -437 -89 -643 -228 -69 -47 -101 -61 -136 -65 -113 -11
-182 94 -130 196 24 46 48 68 136 125 235 150 470 225 979 312 140 24 205 40
219 52 10 10 101 128 200 263 331 448 482 617 797 892 251 218 384 316 568
414 48 26 104 58 126 71 34 22 37 27 24 39 -26 26 -829 173 -1163 213 -773 93
-1372 28 -1852 -199 -167 -80 -288 -164 -413 -290 -167 -168 -255 -341 -267
-525 -13 -198 71 -346 230 -406 53 -21 79 -24 182 -23 107 0 131 4 215 32 106
35 230 102 353 189 106 75 276 245 352 352 33 47 70 95 83 107 48 47 113 39
156 -19 17 -23 21 -42 20 -95 -2 -75 -29 -150 -116 -312 -236 -443 -569 -763
-943 -903 -158 -60 -226 -71 -420 -72 -211 0 -277 14 -429 92 -74 38 -109 65
-187 143 -84 84 -102 108 -148 200 -78 159 -94 232 -95 425 -1 174 9 246 55
388 224 691 1076 1215 2134 1312 88 8 192 17 230 19 122 6 735 -3 870 -14z
m9899 -1686 c22 -8 20 -30 -6 -73 -12 -20 -245 -383 -519 -807 -1079 -1673
-1456 -2277 -1517 -2428 -50 -123 -28 -216 62 -257 105 -48 243 -6 436 131
169 121 289 228 616 552 223 221 327 318 342 318 34 0 202 -155 202 -185 0
-66 -561 -662 -845 -899 -269 -224 -515 -362 -759 -428 -120 -33 -326 -32
-411 2 -84 33 -123 59 -182 124 -71 78 -133 219 -133 304 0 13 -5 32 -10 43
-14 26 -34 15 -130 -73 -293 -268 -658 -415 -935 -379 -313 42 -545 254 -633
579 -24 90 -26 111 -24 282 1 102 3 205 4 230 4 60 -13 62 -93 10 -158 -103
-391 -192 -545 -210 -367 -41 -629 180 -671 565 -6 48 -12 70 -21 70 -14 0
-196 -276 -654 -995 -149 -234 -282 -437 -296 -452 l-26 -28 -327 0 c-284 0
-330 2 -343 16 -9 8 -16 18 -16 21 0 16 87 160 305 503 564 887 840 1356 879
1489 33 114 9 193 -67 218 -139 46 -447 -160 -779 -521 -176 -191 -488 -583
-655 -822 -165 -236 -398 -490 -572 -623 -419 -320 -861 -409 -1250 -254 -217
86 -398 267 -490 487 -17 41 -31 80 -31 86 0 20 -30 70 -43 70 -7 0 -55 -43
-107 -96 -169 -170 -341 -304 -392 -304 -20 0 -39 10 -59 32 -39 42 -124 166
-133 194 -10 32 10 63 73 118 338 294 418 399 550 715 215 514 501 886 856
1114 313 200 799 346 949 283 47 -20 66 -50 106 -165 27 -77 32 -105 24 -118
-6 -9 -69 -42 -141 -73 -276 -119 -467 -244 -648 -425 -265 -264 -406 -563
-406 -861 0 -175 47 -299 147 -394 341 -323 1003 65 1219 713 67 201 80 286
80 537 0 231 -3 260 -52 450 -10 40 -13 77 -9 95 11 42 63 86 178 151 171 98
234 86 315 -56 72 -126 126 -317 138 -490 8 -111 12 -130 30 -130 7 0 110 105
229 233 292 316 449 450 643 549 296 152 562 153 723 2 88 -82 139 -225 140
-386 0 -134 14 -139 96 -30 156 209 397 379 613 433 69 18 106 21 206 17 115
-4 125 -6 198 -41 218 -103 326 -325 271 -557 -40 -169 -143 -304 -288 -376
-76 -37 -85 -39 -175 -39 -85 0 -103 3 -158 29 -137 63 -209 197 -195 363 7
97 -40 78 -133 -52 -92 -129 -136 -253 -138 -390 -1 -149 44 -257 137 -323 64
-46 120 -64 206 -64 237 -2 501 157 994 598 298 266 373 330 502 428 356 267
655 380 964 363 191 -11 350 -73 469 -183 86 -80 129 -146 157 -243 30 -104
48 -107 107 -14 24 37 167 255 317 483 405 615 637 971 720 1103 40 65 83 125
94 133 17 11 81 14 362 14 188 0 349 -3 358 -6z"/>
<path d="M11635 6362 c-93 -44 -175 -182 -183 -308 -6 -101 1 -124 39 -124 79
0 226 118 279 223 40 80 42 162 6 196 -33 31 -91 36 -141 13z"/>
<path d="M17351 4574 c-142 -48 -293 -155 -451 -320 -318 -332 -502 -709 -504
-1034 0 -98 3 -124 23 -174 83 -208 334 -223 613 -35 124 83 269 209 350 304
107 126 339 486 362 562 6 18 1 25 -23 38 -47 24 -49 53 -7 153 47 113 66 192
66 267 -1 114 -44 186 -141 234 -82 41 -178 43 -288 5z"/>
</g>
</svg>
